<svg xmlns="http://www.w3.org/2000/svg" viewBox="0 19.950000762939453 28.25 32.54999923706055" data-asc="1.05" width="28.25" height="32.54999923706055"><defs/><g><g fill="#ffffff"><g transform="translate(0, 0)"><path d="M21.25 42.70Q21.25 41.05 21.40 39.70L21.30 39.55Q19.90 39.75 18.25 39.83Q16.60 39.90 15.20 39.85L15.20 33.35L28.25 33.30L28.25 50.30Q25.95 51.35 23.03 51.92Q20.10 52.50 15.60 52.50Q9.60 52.50 6.20 50.88Q2.80 49.25 1.40 45.63Q0 42 0 35.95Q0 31.05 1.13 27.90Q2.25 24.75 4.43 23.02Q6.60 21.30 9.75 20.63Q12.90 19.95 16.95 19.95Q19.35 19.95 21.78 20.15Q24.20 20.35 26.60 20.90L26.60 27.50L26.45 27.60Q24.35 27.10 22.28 26.90Q20.20 26.70 18.10 26.70Q15.05 26.70 12.78 27.32Q10.50 27.95 9.25 29.90Q8 31.85 8 35.95Q8 40 8.68 42.13Q9.35 44.25 11.23 45.02Q13.10 45.80 16.60 45.80Q17.05 45.80 18 45.77Q18.95 45.75 19.90 45.70Q20.85 45.65 21.25 45.55L21.25 42.70Z"/></g></g></g></svg>