<svg xmlns="http://www.w3.org/2000/svg" viewBox="0 18.25 119.94999694824219 34.25" data-asc="1.05" width="119.94999694824219" height="34.25"><defs/><g><g fill="#ffffff"><g transform="translate(0, 0)"><path d="M21.25 42.70Q21.25 41.05 21.40 39.70L21.30 39.55Q19.90 39.75 18.25 39.83Q16.60 39.90 15.20 39.85L15.20 33.35L28.25 33.30L28.25 50.30Q25.95 51.35 23.03 51.92Q20.10 52.50 15.60 52.50Q9.60 52.50 6.20 50.88Q2.80 49.25 1.40 45.63Q0 42 0 35.95Q0 31.05 1.13 27.90Q2.25 24.75 4.43 23.02Q6.60 21.30 9.75 20.63Q12.90 19.95 16.95 19.95Q19.35 19.95 21.78 20.15Q24.20 20.35 26.60 20.90L26.60 27.50L26.45 27.60Q24.35 27.10 22.28 26.90Q20.20 26.70 18.10 26.70Q15.05 26.70 12.78 27.32Q10.50 27.95 9.25 29.90Q8 31.85 8 35.95Q8 40 8.68 42.13Q9.35 44.25 11.23 45.02Q13.10 45.80 16.60 45.80Q17.05 45.80 18 45.77Q18.95 45.75 19.90 45.70Q20.85 45.65 21.25 45.55L21.25 42.70ZM41.30 18.65Q41.45 20.45 41.45 21.65Q41.45 22.35 41.42 23.07Q41.40 23.80 41.30 24.70Q40.25 24.90 39.25 25Q38.25 25.10 37.25 25.10Q36.30 25.10 35.33 25Q34.35 24.90 33.35 24.70Q33.25 23.85 33.20 23.13Q33.15 22.40 33.15 21.70Q33.15 21.05 33.20 20.30Q33.25 19.55 33.35 18.65Q34.35 18.40 35.38 18.32Q36.40 18.25 37.40 18.25Q38.35 18.25 39.33 18.32Q40.30 18.40 41.30 18.65M41.30 52.05L33.30 52.05L33.30 27.70L41.30 27.70L41.30 52.05ZM73.65 43.95Q73.65 47.95 71.18 50Q68.70 52.05 62.45 52.05L46.85 52.05L46.85 20.40L48.80 20.40L48.80 20.40L61.95 20.40Q66.10 20.40 68.43 21.27Q70.75 22.15 71.70 23.85Q72.65 25.55 72.65 28.10Q72.65 31.60 70.97 33.52Q69.30 35.45 64.70 35.85L64.70 36Q68.10 36.25 70.05 37.13Q72 38 72.83 39.65Q73.65 41.30 73.65 43.95M59.75 26.70L54.85 26.70L54.85 32.90L59.75 32.90Q62.20 32.90 63.30 32.27Q64.40 31.65 64.40 29.80Q64.40 28 63.30 27.35Q62.20 26.70 59.75 26.70M60.75 39.45L54.85 39.45L54.85 45.80L60.75 45.80Q63.20 45.80 64.30 45.13Q65.40 44.45 65.40 42.60Q65.40 40.70 64.30 40.08Q63.20 39.45 60.75 39.45ZM76.95 26.30L76.95 21.60Q78.15 20.90 80.08 20.42Q82 19.95 84.25 19.95Q87.85 19.95 90 21.35Q92.15 22.75 92.15 26.15Q92.15 28.75 90.95 30.30Q89.75 31.85 86.60 33.15Q83.55 34.40 82.40 34.97Q81.25 35.55 81.25 36.25L92.35 36.25L92.35 40.75L76.40 40.75L76.40 37Q76.40 35 77 33.80Q77.60 32.60 79.05 31.70Q80.50 30.80 83 29.75Q84.95 28.90 86.08 28.20Q87.20 27.50 87.10 26.55Q86.95 24.45 83.55 24.45Q81.90 24.45 80.23 25.02Q78.55 25.60 77.25 26.30L76.95 26.30ZM119.95 45.20L119.95 51.50Q117.55 52 115.25 52.25Q112.95 52.50 109.80 52.50Q105.75 52.50 102.98 51.80Q100.20 51.10 98.53 49.33Q96.85 47.55 96.10 44.30Q95.35 41.05 95.35 35.95Q95.35 31.05 96.10 27.90Q96.85 24.75 98.53 23.02Q100.20 21.30 102.98 20.63Q105.75 19.95 109.80 19.95Q112.95 19.95 115.25 20.17Q117.55 20.40 119.95 20.95L119.95 27.45L119.80 27.55Q117.70 27.05 115.75 26.82Q113.80 26.60 110.95 26.60Q108.65 26.60 107.18 26.92Q105.70 27.25 104.85 28.20Q104.00 29.15 103.68 31Q103.35 32.85 103.35 35.95Q103.35 39.20 103.68 41.17Q104.00 43.15 104.85 44.15Q105.70 45.15 107.18 45.50Q108.65 45.85 110.95 45.85Q113.75 45.85 115.73 45.67Q117.70 45.50 119.70 45L119.95 45.20Z"/></g></g></g></svg>