<svg xmlns="http://www.w3.org/2000/svg" viewBox="0 14.100000381469727 116.5 32.45000076293945" data-asc="0.92" width="116.5" height="32.45000076293945"><defs/><g><g fill="#ffffff"><g transform="translate(0, 0)"><path d="M4.40 46.55L4.40 42.30L0 42.30L0 18.40L4.40 18.40L4.40 14.10L19.60 14.10L19.60 18.40L24.05 18.40L24.05 29.45L17.65 29.45L17.65 20.95L6.35 20.95L6.35 39.75L17.65 39.75L17.65 38L13.25 38L13.25 33.70L8.80 33.70L8.80 26.95L15.20 26.95L15.20 31.15L24.05 31.15L24.05 42.30L19.60 42.30L19.60 46.55L4.40 46.55ZM30.15 46.55L30.15 22.65L36.50 22.65L36.50 46.55L30.15 46.55M30.15 20.95L30.15 14.10L36.50 14.10L36.50 20.95L30.15 20.95ZM46.00 46.55L46.00 42.30L41.60 42.30L41.60 18.40L46.00 18.40L46.00 14.10L61.20 14.10L61.20 18.40L65.65 18.40L65.65 29.45L61.20 29.45L61.20 31.15L65.65 31.15L65.65 42.30L61.20 42.30L61.20 46.55L46.00 46.55M47.95 39.75L59.25 39.75L59.25 33.70L50.40 33.70L50.40 26.95L59.25 26.95L59.25 20.95L47.95 20.95L47.95 39.75ZM74 34.20L74 31.95L71.70 31.95L71.70 25.80L74 25.80L74 23.55L80.90 23.55L80.90 18.25L75.95 18.25L75.95 20.50L71.70 20.50L71.70 16.60L74 16.60L74 14.35L82.85 14.35L82.85 16.60L85.15 16.60L85.15 25.15L82.85 25.15L82.85 27.45L75.95 27.45L75.95 30.30L80.90 30.30L80.90 28.05L85.15 28.05L85.15 31.95L82.85 31.95L82.85 34.20L74 34.20ZM96.85 46.55L96.85 42.30L92.45 42.30L92.45 18.40L96.85 18.40L96.85 14.10L112.05 14.10L112.05 18.40L116.50 18.40L116.50 29.45L110.10 29.45L110.10 20.95L98.80 20.95L98.80 39.75L110.10 39.75L110.10 31.15L116.50 31.15L116.50 42.30L112.05 42.30L112.05 46.55L96.85 46.55Z"/></g></g></g></svg>